# xmcd CD database file
#
# Track frame offsets:
#	150
#	12075
#	26102
#	41017
#	59705
#	87025
#	101591
#
# Disc length: 1588 seconds
#
# Revision: 1
# Processed by: cddbd v1.5.2PL0 Copyright (c) Steve Scherf et al.
# Submitted via: CDex 1.70beta3
#
DISCID=53063207
DTITLE=EcN - TOHO SKA PARADISE ORCHESTRA
DYEAR=2008
DGENRE=東方アレンジ
TTITLE0=神さびた古戦場 ～ Suwa Foughten Field
TTITLE1=稲田姫様に叱られるから
TTITLE2=U.N.オーエンは彼女なのか？
TTITLE3=渡る者の途絶えた橋
TTITLE4=ラクトガール ～ 少女密室
TTITLE5=蠢々秋月 ～ Mooned Insect
TTITLE6=竹取飛翔 ～ Lunatic Princess
EXTD=YEAR: 2008
EXTT0=
EXTT1=
EXTT2=
EXTT3=
EXTT4=
EXTT5=
EXTT6=
PLAYORDER=
